<svg width="171" height="41" viewBox="0 0 171 41" fill="none" xmlns="http://www.w3.org/2000/svg">
<path d="M20.522 20.536C21.562 20.8653 22.3767 21.42 22.966 22.2C23.5553 22.9627 23.85 23.9073 23.85 25.034C23.85 26.6287 23.226 27.8593 21.978 28.726C20.7473 29.5753 18.9447 30 16.57 30H7.158V11.8H16.05C18.2687 11.8 19.9673 12.2247 21.146 13.074C22.342 13.9233 22.94 15.076 22.94 16.532C22.94 17.416 22.7233 18.2047 22.29 18.898C21.874 19.5913 21.2847 20.1373 20.522 20.536ZM11.344 14.972V19.262H15.53C16.57 19.262 17.3587 19.08 17.896 18.716C18.4333 18.352 18.702 17.8147 18.702 17.104C18.702 16.3933 18.4333 15.8647 17.896 15.518C17.3587 15.154 16.57 14.972 15.53 14.972H11.344ZM16.258 26.828C17.3673 26.828 18.1993 26.646 18.754 26.282C19.326 25.918 19.612 25.3547 19.612 24.592C19.612 23.084 18.494 22.33 16.258 22.33H11.344V26.828H16.258ZM27.0389 11.8H31.2509V26.568H40.3769V30H27.0389V11.8ZM54.8686 26.1H46.4186L44.8066 30H40.4906L48.6026 11.8H52.7626L60.9006 30H56.4806L54.8686 26.1ZM53.5426 22.902L50.6566 15.934L47.7706 22.902H53.5426ZM71.245 30.312C69.3903 30.312 67.709 29.9133 66.201 29.116C64.7103 28.3013 63.5316 27.1833 62.665 25.762C61.8156 24.3233 61.391 22.7027 61.391 20.9C61.391 19.0973 61.8156 17.4853 62.665 16.064C63.5316 14.6253 64.7103 13.5073 66.201 12.71C67.709 11.8953 69.399 11.488 71.271 11.488C72.8483 11.488 74.2696 11.7653 75.535 12.32C76.8176 12.8747 77.8923 13.672 78.759 14.712L76.055 17.208C74.8243 15.7867 73.299 15.076 71.479 15.076C70.3523 15.076 69.347 15.3273 68.463 15.83C67.579 16.3153 66.8856 17 66.383 17.884C65.8976 18.768 65.655 19.7733 65.655 20.9C65.655 22.0267 65.8976 23.032 66.383 23.916C66.8856 24.8 67.579 25.4933 68.463 25.996C69.347 26.4813 70.3523 26.724 71.479 26.724C73.299 26.724 74.8243 26.0047 76.055 24.566L78.759 27.062C77.8923 28.1193 76.8176 28.9253 75.535 29.48C74.2523 30.0347 72.8223 30.312 71.245 30.312ZM88.2333 22.85L85.7893 25.398V30H81.6033V11.8H85.7893V20.302L93.8493 11.8H98.5293L90.9893 19.912L98.9713 30H94.0573L88.2333 22.85Z" fill="black"/>
<path d="M131.666 11.8L125.712 30H121.188L117.184 17.676L113.05 30H108.552L102.572 11.8H106.94L111.048 24.592L115.338 11.8H119.238L123.398 24.696L127.636 11.8H131.666Z" fill="white"/>
<rect x="2" y="2" width="98" height="37" stroke="white" stroke-width="4"/>
<path d="M16.522 20.536C17.562 20.8653 18.3767 21.42 18.966 22.2C19.5553 22.9627 19.85 23.9073 19.85 25.034C19.85 26.6287 19.226 27.8593 17.978 28.726C16.7473 29.5753 14.9447 30 12.57 30H3.158V11.8H12.05C14.2687 11.8 15.9673 12.2247 17.146 13.074C18.342 13.9233 18.94 15.076 18.94 16.532C18.94 17.416 18.7233 18.2047 18.29 18.898C17.874 19.5913 17.2847 20.1373 16.522 20.536ZM7.344 14.972V19.262H11.53C12.57 19.262 13.3587 19.08 13.896 18.716C14.4333 18.352 14.702 17.8147 14.702 17.104C14.702 16.3933 14.4333 15.8647 13.896 15.518C13.3587 15.154 12.57 14.972 11.53 14.972H7.344ZM12.258 26.828C13.3673 26.828 14.1993 26.646 14.754 26.282C15.326 25.918 15.612 25.3547 15.612 24.592C15.612 23.084 14.494 22.33 12.258 22.33H7.344V26.828H12.258ZM23.0389 11.8H27.2509V26.568H36.3769V30H23.0389V11.8ZM50.8686 26.1H42.4186L40.8066 30H36.4906L44.6026 11.8H48.7626L56.9006 30H52.4806L50.8686 26.1ZM49.5426 22.902L46.6566 15.934L43.7706 22.902H49.5426ZM67.245 30.312C65.3903 30.312 63.709 29.9133 62.201 29.116C60.7103 28.3013 59.5316 27.1833 58.665 25.762C57.8156 24.3233 57.391 22.7027 57.391 20.9C57.391 19.0973 57.8156 17.4853 58.665 16.064C59.5316 14.6253 60.7103 13.5073 62.201 12.71C63.709 11.8953 65.399 11.488 67.271 11.488C68.8483 11.488 70.2696 11.7653 71.535 12.32C72.8176 12.8747 73.8923 13.672 74.759 14.712L72.055 17.208C70.8243 15.7867 69.299 15.076 67.479 15.076C66.3523 15.076 65.347 15.3273 64.463 15.83C63.579 16.3153 62.8856 17 62.383 17.884C61.8976 18.768 61.655 19.7733 61.655 20.9C61.655 22.0267 61.8976 23.032 62.383 23.916C62.8856 24.8 63.579 25.4933 64.463 25.996C65.347 26.4813 66.3523 26.724 67.479 26.724C69.299 26.724 70.8243 26.0047 72.055 24.566L74.759 27.062C73.8923 28.1193 72.8176 28.9253 71.535 29.48C70.2523 30.0347 68.8223 30.312 67.245 30.312ZM84.2333 22.85L81.7893 25.398V30H77.6033V11.8H81.7893V20.302L89.8493 11.8H94.5293L86.9893 19.912L94.9713 30H90.0573L84.2333 22.85Z" fill="white"/>
<line x1="6.25" y1="11" x2="6.25" y2="30" stroke="black" stroke-width="4.5"/>
<line x1="133" y1="27.5" x2="147" y2="27.5" stroke="white" stroke-width="3"/>
<line x1="133" y1="20.5" x2="147" y2="20.5" stroke="white" stroke-width="3"/>
<line x1="133" y1="13.5" x2="147" y2="13.5" stroke="white" stroke-width="3"/>
<path d="M164.522 19.536C165.562 19.8653 166.377 20.42 166.966 21.2C167.555 21.9627 167.85 22.9073 167.85 24.034C167.85 25.6287 167.226 26.8593 165.978 27.726C164.747 28.5753 162.945 29 160.57 29H151.158V10.8H160.05C162.269 10.8 163.967 11.2247 165.146 12.074C166.342 12.9233 166.94 14.076 166.94 15.532C166.94 16.416 166.723 17.2047 166.29 17.898C165.874 18.5913 165.285 19.1373 164.522 19.536ZM155.344 13.972V18.262H159.53C160.57 18.262 161.359 18.08 161.896 17.716C162.433 17.352 162.702 16.8147 162.702 16.104C162.702 15.3933 162.433 14.8647 161.896 14.518C161.359 14.154 160.57 13.972 159.53 13.972H155.344ZM160.258 25.828C161.367 25.828 162.199 25.646 162.754 25.282C163.326 24.918 163.612 24.3547 163.612 23.592C163.612 22.084 162.494 21.33 160.258 21.33H155.344V25.828H160.258Z" fill="white"/>
<path d="M20.522 20.536C21.562 20.8653 22.3767 21.42 22.966 22.2C23.5553 22.9627 23.85 23.9073 23.85 25.034C23.85 26.6287 23.226 27.8593 21.978 28.726C20.7473 29.5753 18.9447 30 16.57 30H7.158V11.8H16.05C18.2687 11.8 19.9673 12.2247 21.146 13.074C22.342 13.9233 22.94 15.076 22.94 16.532C22.94 17.416 22.7233 18.2047 22.29 18.898C21.874 19.5913 21.2847 20.1373 20.522 20.536ZM11.344 14.972V19.262H15.53C16.57 19.262 17.3587 19.08 17.896 18.716C18.4333 18.352 18.702 17.8147 18.702 17.104C18.702 16.3933 18.4333 15.8647 17.896 15.518C17.3587 15.154 16.57 14.972 15.53 14.972H11.344ZM16.258 26.828C17.3673 26.828 18.1993 26.646 18.754 26.282C19.326 25.918 19.612 25.3547 19.612 24.592C19.612 23.084 18.494 22.33 16.258 22.33H11.344V26.828H16.258ZM27.0389 11.8H31.2509V26.568H40.3769V30H27.0389V11.8ZM54.8686 26.1H46.4186L44.8066 30H40.4906L48.6026 11.8H52.7626L60.9006 30H56.4806L54.8686 26.1ZM53.5426 22.902L50.6566 15.934L47.7706 22.902H53.5426ZM71.245 30.312C69.3903 30.312 67.709 29.9133 66.201 29.116C64.7103 28.3013 63.5316 27.1833 62.665 25.762C61.8156 24.3233 61.391 22.7027 61.391 20.9C61.391 19.0973 61.8156 17.4853 62.665 16.064C63.5316 14.6253 64.7103 13.5073 66.201 12.71C67.709 11.8953 69.399 11.488 71.271 11.488C72.8483 11.488 74.2696 11.7653 75.535 12.32C76.8176 12.8747 77.8923 13.672 78.759 14.712L76.055 17.208C74.8243 15.7867 73.299 15.076 71.479 15.076C70.3523 15.076 69.347 15.3273 68.463 15.83C67.579 16.3153 66.8856 17 66.383 17.884C65.8976 18.768 65.655 19.7733 65.655 20.9C65.655 22.0267 65.8976 23.032 66.383 23.916C66.8856 24.8 67.579 25.4933 68.463 25.996C69.347 26.4813 70.3523 26.724 71.479 26.724C73.299 26.724 74.8243 26.0047 76.055 24.566L78.759 27.062C77.8923 28.1193 76.8176 28.9253 75.535 29.48C74.2523 30.0347 72.8223 30.312 71.245 30.312ZM88.2333 22.85L85.7893 25.398V30H81.6033V11.8H85.7893V20.302L93.8493 11.8H98.5293L90.9893 19.912L98.9713 30H94.0573L88.2333 22.85Z" fill="black"/>
<path d="M131.666 11.8L125.712 30H121.188L117.184 17.676L113.05 30H108.552L102.572 11.8H106.94L111.048 24.592L115.338 11.8H119.238L123.398 24.696L127.636 11.8H131.666Z" fill="white"/>
<rect x="2" y="2" width="98" height="37" stroke="white" stroke-width="4"/>
<path d="M16.522 20.536C17.562 20.8653 18.3767 21.42 18.966 22.2C19.5553 22.9627 19.85 23.9073 19.85 25.034C19.85 26.6287 19.226 27.8593 17.978 28.726C16.7473 29.5753 14.9447 30 12.57 30H3.158V11.8H12.05C14.2687 11.8 15.9673 12.2247 17.146 13.074C18.342 13.9233 18.94 15.076 18.94 16.532C18.94 17.416 18.7233 18.2047 18.29 18.898C17.874 19.5913 17.2847 20.1373 16.522 20.536ZM7.344 14.972V19.262H11.53C12.57 19.262 13.3587 19.08 13.896 18.716C14.4333 18.352 14.702 17.8147 14.702 17.104C14.702 16.3933 14.4333 15.8647 13.896 15.518C13.3587 15.154 12.57 14.972 11.53 14.972H7.344ZM12.258 26.828C13.3673 26.828 14.1993 26.646 14.754 26.282C15.326 25.918 15.612 25.3547 15.612 24.592C15.612 23.084 14.494 22.33 12.258 22.33H7.344V26.828H12.258ZM23.0389 11.8H27.2509V26.568H36.3769V30H23.0389V11.8ZM50.8686 26.1H42.4186L40.8066 30H36.4906L44.6026 11.8H48.7626L56.9006 30H52.4806L50.8686 26.1ZM49.5426 22.902L46.6566 15.934L43.7706 22.902H49.5426ZM67.245 30.312C65.3903 30.312 63.709 29.9133 62.201 29.116C60.7103 28.3013 59.5316 27.1833 58.665 25.762C57.8156 24.3233 57.391 22.7027 57.391 20.9C57.391 19.0973 57.8156 17.4853 58.665 16.064C59.5316 14.6253 60.7103 13.5073 62.201 12.71C63.709 11.8953 65.399 11.488 67.271 11.488C68.8483 11.488 70.2696 11.7653 71.535 12.32C72.8176 12.8747 73.8923 13.672 74.759 14.712L72.055 17.208C70.8243 15.7867 69.299 15.076 67.479 15.076C66.3523 15.076 65.347 15.3273 64.463 15.83C63.579 16.3153 62.8856 17 62.383 17.884C61.8976 18.768 61.655 19.7733 61.655 20.9C61.655 22.0267 61.8976 23.032 62.383 23.916C62.8856 24.8 63.579 25.4933 64.463 25.996C65.347 26.4813 66.3523 26.724 67.479 26.724C69.299 26.724 70.8243 26.0047 72.055 24.566L74.759 27.062C73.8923 28.1193 72.8176 28.9253 71.535 29.48C70.2523 30.0347 68.8223 30.312 67.245 30.312ZM84.2333 22.85L81.7893 25.398V30H77.6033V11.8H81.7893V20.302L89.8493 11.8H94.5293L86.9893 19.912L94.9713 30H90.0573L84.2333 22.85Z" fill="white"/>
<line x1="6.25" y1="11" x2="6.25" y2="30" stroke="black" stroke-width="4.5"/>
<line x1="133" y1="27.5" x2="147" y2="27.5" stroke="white" stroke-width="3"/>
<line x1="133" y1="20.5" x2="147" y2="20.5" stroke="white" stroke-width="3"/>
<line x1="133" y1="13.5" x2="147" y2="13.5" stroke="white" stroke-width="3"/>
<path d="M164.522 19.536C165.562 19.8653 166.377 20.42 166.966 21.2C167.555 21.9627 167.85 22.9073 167.85 24.034C167.85 25.6287 167.226 26.8593 165.978 27.726C164.747 28.5753 162.945 29 160.57 29H151.158V10.8H160.05C162.269 10.8 163.967 11.2247 165.146 12.074C166.342 12.9233 166.94 14.076 166.94 15.532C166.94 16.416 166.723 17.2047 166.29 17.898C165.874 18.5913 165.285 19.1373 164.522 19.536ZM155.344 13.972V18.262H159.53C160.57 18.262 161.359 18.08 161.896 17.716C162.433 17.352 162.702 16.8147 162.702 16.104C162.702 15.3933 162.433 14.8647 161.896 14.518C161.359 14.154 160.57 13.972 159.53 13.972H155.344ZM160.258 25.828C161.367 25.828 162.199 25.646 162.754 25.282C163.326 24.918 163.612 24.3547 163.612 23.592C163.612 22.084 162.494 21.33 160.258 21.33H155.344V25.828H160.258Z" fill="white"/>
</svg>
