<?xml version="1.0" encoding="UTF-8"?>
<svg width="143px" height="91px" viewBox="0 0 143 91" version="1.1" xmlns="http://www.w3.org/2000/svg" xmlns:xlink="http://www.w3.org/1999/xlink">
    <!-- Generator: Sketch 55 (78076) - https://sketchapp.com -->
    <title>icn_fluxo_users</title>
    <desc>Created with Sketch.</desc>
    <g id="Page-1" stroke="none" stroke-width="1" fill="none" fill-rule="evenodd">
        <g id="Artboard" transform="translate(-4.000000, -30.000000)" fill-rule="nonzero">
            <g id="icn_fluxo_users" transform="translate(4.000000, 30.000000)">
                <path d="M45.5,52 C26,52 0,61.75 0,74.75 L0,84.5 C0,88.4 2.6,91 6.5,91 L84.5,91 C88.4,91 91,88.4 91,84.5 L91,74.75 C91,61.75 65,52 45.5,52 Z" id="Path" fill="#4D5BED"></path>
                <path d="M97.5,52 C95.55,52 93.6,52 91,52.65 C98.8,58.5 104,65.65 104,74.75 L104,91 L136.5,91 C140.4,91 143,88.4 143,84.5 L143,74.75 C143,61.75 117,52 97.5,52 Z" id="Path" fill="#4D5BED"></path>
                <circle id="Oval" fill-opacity="0.65" fill="#7C87FB" cx="97.5" cy="19.5" r="19.5"></circle>
                <circle id="Oval" fill-opacity="0.65" fill="#7C87FB" cx="45.5" cy="19.5" r="19.5"></circle>
            </g>
        </g>
    </g>
</svg>