<svg xmlns="http://www.w3.org/2000/svg" width="57" height="16" viewBox="0 0 57 16">
    <g fill="none" fill-rule="evenodd">
        <g>
            <g>
                <g>
                    <g>
                        <g>
                            <g transform="translate(-745 -1383) translate(417 1183) translate(85 16) translate(23 176) translate(180) translate(40 8)">
                                <rect width="57" height="16" fill="#F6F6F6" rx="2"/>
                                <g fill-rule="nonzero">
                                    <path fill="#231F20" d="M13.615 4.311L10.615 4.311 10.615 6.342 14.134 6.342 14.134 7.597 9.053 7.597 9.053.015 14.125.015 14.125 1.28 10.613 1.28 10.613 3.088 13.613 3.088zM20.864 1.28L18.542 1.28 18.542 7.601 16.979 7.601 16.979 1.28 14.688 1.28 14.688.015 20.864.015zM23.317 4.925v2.672h-1.563V.015h2.959c.517-.011 1.031.096 1.502.312.414.19.762.5 1 .888.237.395.359.85.352 1.31 0 .743-.255 1.328-.763 1.756-.509.428-1.215.642-2.118.644h-1.37zm0-1.265h1.396c.41 0 .724-.097.944-.291.22-.195.33-.472.33-.834.014-.332-.104-.656-.329-.9-.219-.23-.52-.346-.906-.351h-1.435V3.66zM31.7 3.374c-.179-.026-.36-.04-.54-.042-.57 0-.943.193-1.12.578v3.688h-1.508V1.962h1.422l.04.672c.303-.518.721-.776 1.256-.775.16-.002.317.02.47.067l-.02 1.448zM32.414.776c-.006-.21.076-.412.227-.557.358-.29.87-.29 1.23 0 .151.144.235.347.228.557.007.212-.077.417-.232.562-.355.291-.868.291-1.223 0-.154-.146-.237-.35-.23-.562zM32.503 1.962H34.013V7.596H32.503zM36.664 1.962l.046.63c.4-.49.94-.734 1.62-.733.726 0 1.223.286 1.492.858.395-.572.96-.858 1.692-.858.611 0 1.066.177 1.364.533.299.356.448.892.449 1.607v3.6h-1.508V4.002c0-.318-.063-.552-.187-.702-.125-.15-.345-.224-.661-.221-.453 0-.765.215-.938.645l.005 3.869h-1.505V4.009c0-.326-.064-.562-.193-.708-.128-.146-.346-.22-.655-.219-.428 0-.737.176-.927.527v3.988h-1.506V1.962h1.412zM47.078 7.701c-.826 0-1.5-.253-2.019-.76-.52-.507-.779-1.182-.777-2.025V4.77c-.009-.526.103-1.046.329-1.52.201-.428.525-.787.93-1.031.414-.246.89-.37 1.371-.362.771 0 1.378.243 1.82.729.443.485.664 1.175.664 2.068v.615h-3.588c.034.338.19.653.439.884.256.227.588.346.93.334.58 0 1.033-.21 1.359-.63l.74.828c-.234.326-.55.584-.917.748-.402.182-.84.274-1.28.27zm-.17-4.628c-.276-.01-.542.1-.73.302-.184.203-.303.492-.356.868h2.095v-.117c-.006-.335-.096-.593-.27-.776-.174-.19-.42-.277-.74-.277z" transform="translate(4 4)"/>
                                    <path fill="#EB2227" d="M3.212 5.007L5.111 3.589 3.212 2.298z" transform="translate(4 4)"/>
                                    <path fill="#ED1C24" d="M6.135.033H1.374C.617.036.004.648 0 1.405v4.763c.002.758.616 1.372 1.374 1.374h1.135V.966l3.802 2.6-3.099 2.323v1.653h2.923c.758-.002 1.372-.616 1.374-1.374V1.405C7.505.648 6.892.035 6.135.033z" transform="translate(4 4)"/>
                                </g>
                            </g>
                        </g>
                    </g>
                </g>
            </g>
        </g>
    </g>
</svg>
