<svg width="14" height="13" xmlns="http://www.w3.org/2000/svg"><g fill-rule="nonzero" fill="none"><path d="M6.923 3.336v7.64H2.288L.342 5.727l2.352 1.653c.932.667 2.23.305 2.702-.764l1.527-3.279zm0 9.307H2.288v-.972h4.635v.972zm0-12.224v1.978l-.699.373.072-.843-.47-.609.687-.18.41-.719z" fill="#FCC600"/><path d="M6.923 10.977v-7.64L8.45 6.614a1.798 1.798 0 0 0 2.703.764l2.35-1.653-1.945 5.25H6.923zm0 .694h4.635v.972H6.923v-.972zm0-9.274V.419l.44.72.735.18-.503.608.077.843-.749-.373z" fill="#FCAC16"/></g></svg>